<?xml version="1.0" encoding="UTF-8" standalone="no"?>
<!DOCTYPE svg PUBLIC "-//W3C//DTD SVG 1.1//EN" "http://www.w3.org/Graphics/SVG/1.1/DTD/svg11.dtd">
<svg xmlns="http://www.w3.org/2000/svg" version="1.1" viewBox="0.00 0.00 500.00 500.00">
<g stroke-width="2.00" fill="none" stroke-linecap="butt">
<path stroke="#ccf0bb" vector-effect="non-scaling-stroke" d="
  M 268.59 118.52
  L 268.34 132.72"
/>
<path stroke="#83939f" vector-effect="non-scaling-stroke" d="
  M 341.73 205.55
  Q 337.21 202.08 332.19 198.96
  C 320.32 191.58 309.21 183.55 296.44 175.31
  Q 288.14 169.96 277.45 162.40
  C 270.83 157.72 261.85 152.89 254.64 146.92
  A 1.81 1.81 0.0 0 0 252.48 146.81
  Q 238.78 155.90 224.65 165.25
  C 220.14 168.23 214.64 172.41 209.45 175.71
  C 196.46 183.96 183.99 192.94 171.16 201.41
  Q 167.43 203.87 164.43 206.39"
/>
<path stroke="#83939f" vector-effect="non-scaling-stroke" d="
  M 401.91 306.97
  C 370.72 304.79 368.85 363.70 400.81 363.56"
/>
<path stroke="#83939f" vector-effect="non-scaling-stroke" d="
  M 104.97 363.91
  L 113.68 363.69
  A 0.71 0.71 0.0 0 0 114.37 362.98
  L 114.35 329.34
  Q 114.35 328.89 114.59 329.27
  L 128.10 350.99
  A 0.43 0.42 -46.0 0 0 128.83 350.97
  L 141.95 328.43
  A 0.18 0.18 0.0 0 1 142.29 328.52
  L 142.25 363.17
  A 0.31 0.31 0.0 0 0 142.56 363.48
  L 152.25 363.50
  Q 153.01 363.51 153.01 362.75
  L 152.90 308.45
  A 0.46 0.46 0.0 0 0 152.44 307.99
  L 142.98 307.96
  A 0.86 0.86 0.0 0 0 142.24 308.38
  L 128.79 330.86
  Q 128.42 331.47 128.04 330.87
  L 113.52 307.96"
/>
<path stroke="#50835b" vector-effect="non-scaling-stroke" d="
  M 260.8926 172.6881
  A 7.77 7.41 -8.6 0 0 252.1019 166.5233
  A 7.77 7.41 -8.6 0 0 245.5274 175.0119
  A 7.77 7.41 -8.6 0 0 254.3181 181.1767
  A 7.77 7.41 -8.6 0 0 260.8926 172.6881"
/>
<path stroke="#83939f" vector-effect="non-scaling-stroke" d="
  M 248.7114 192.6209
  A 0.38 0.38 0.0 0 0 248.3301 192.2423
  L 232.4102 192.2978
  A 0.38 0.38 0.0 0 0 232.0315 192.6792
  L 232.0886 209.0391
  A 0.38 0.38 0.0 0 0 232.4699 209.4177
  L 248.3898 209.3622
  A 0.38 0.38 0.0 0 0 248.7685 208.9808
  L 248.7114 192.6209"
/>
<path stroke="#83939f" vector-effect="non-scaling-stroke" d="
  M 274.8518 192.7202
  A 0.51 0.51 0.0 0 0 274.3400 192.2120
  L 258.2601 192.2681
  A 0.51 0.51 0.0 0 0 257.7519 192.7799
  L 257.8082 208.8998
  A 0.51 0.51 0.0 0 0 258.3200 209.4080
  L 274.3999 209.3519
  A 0.51 0.51 0.0 0 0 274.9081 208.8401
  L 274.8518 192.7202"
/>
<path stroke="#337c9b" vector-effect="non-scaling-stroke" d="
  M 194.01 205.35
  A 6.83 6.83 0.0 0 0 187.18 198.52
  A 6.83 6.83 0.0 0 0 180.35 205.35
  A 6.83 6.83 0.0 0 0 187.18 212.18
  A 6.83 6.83 0.0 0 0 194.01 205.35"
/>
<path stroke="#50835b" vector-effect="non-scaling-stroke" d="
  M 314.03 267.41
  Q 314.01 267.96 313.46 267.96
  Q 288.45 268.03 263.83 267.98
  C 257.41 267.96 255.54 275.45 260.02 278.75
  Q 261.72 280.01 264.81 280.01
  Q 291.78 280.01 318.77 280.05
  C 323.84 280.06 325.50 276.75 325.50 272.00
  Q 325.55 238.00 325.58 204.00
  C 325.58 201.09 322.44 198.51 319.47 198.73
  C 314.95 199.07 314.15 202.73 314.11 206.80
  C 313.92 226.99 314.61 247.28 314.03 267.41"
/>
<path stroke="#83939f" vector-effect="non-scaling-stroke" d="
  M 248.8057 218.4854
  A 0.38 0.38 0.0 0 0 248.4250 218.1061
  L 232.4251 218.1340
  A 0.38 0.38 0.0 0 0 232.0457 218.5146
  L 232.0743 234.8946
  A 0.38 0.38 0.0 0 0 232.4550 235.2739
  L 248.4549 235.2460
  A 0.38 0.38 0.0 0 0 248.8343 234.8654
  L 248.8057 218.4854"
/>
<path stroke="#83939f" vector-effect="non-scaling-stroke" d="
  M 274.9456 218.3950
  A 0.40 0.40 0.0 0 0 274.5449 217.9957
  L 258.1449 218.0243
  A 0.40 0.40 0.0 0 0 257.7456 218.4250
  L 257.7744 234.9250
  A 0.40 0.40 0.0 0 0 258.1751 235.3243
  L 274.5751 235.2957
  A 0.40 0.40 0.0 0 0 274.9744 234.8950
  L 274.9456 218.3950"
/>
<path stroke="#83939f" vector-effect="non-scaling-stroke" d="
  M 181.11 267.58
  C 181.06 274.73 181.28 280.19 190.05 280.21
  Q 216.90 280.28 243.75 280.21
  C 249.97 280.19 252.38 271.40 246.50 268.44
  Q 244.98 267.67 241.87 267.67
  Q 217.39 267.70 192.69 267.71"
/>
<path stroke="#337c9b" vector-effect="non-scaling-stroke" d="
  M 192.69 267.71
  Q 192.45 246.40 192.58 225.24
  C 192.63 217.19 181.16 216.88 181.03 224.50
  Q 180.89 233.64 181.11 267.58"
/>
<path stroke="#afe9fc" vector-effect="non-scaling-stroke" d="
  M 192.69 267.71
  L 181.11 267.58"
/>
<path stroke="#83939f" vector-effect="non-scaling-stroke" d="
  M 262.82 324.99
  C 258.07 305.26 233.61 300.03 222.84 318.29
  C 215.19 331.24 217.67 354.37 232.49 361.53
  C 241.78 366.01 254.61 362.43 259.58 353.29
  Q 266.54 340.48 262.82 324.99"
/>
<path stroke="#83939f" vector-effect="non-scaling-stroke" d="
  M 173.67 328.97
  L 186.61 350.98
  A 0.62 0.62 0.0 0 0 187.68 350.98
  L 200.45 328.90
  A 0.24 0.24 0.0 0 1 200.89 329.02
  L 200.72 362.99
  Q 200.72 363.50 201.23 363.50
  L 210.98 363.50
  A 0.49 0.48 -0.0 0 0 211.47 363.02
  L 211.36 308.60
  Q 211.35 307.98 210.73 307.98
  L 201.70 307.99
  Q 201.28 307.99 201.07 308.35
  L 187.57 330.93
  A 0.42 0.42 0.0 0 1 186.85 330.94
  L 172.98 308.47
  Q 172.69 308.01 172.14 308.00
  L 163.48 308.00
  Q 162.95 308.00 162.95 308.52
  L 162.76 363.02
  A 0.51 0.50 0.0 0 0 163.27 363.52
  L 173.00 363.51
  Q 173.51 363.51 173.51 363.00
  L 173.49 329.02
  Q 173.49 328.67 173.67 328.97"
/>
<path stroke="#83939f" vector-effect="non-scaling-stroke" d="
  M 268.36 351.26
  L 268.53 362.82
  Q 268.54 363.49 269.22 363.49
  L 298.25 363.50
  Q 298.75 363.50 298.76 363.00
  L 298.77 352.50
  Q 298.77 351.91 298.19 351.90
  L 279.78 351.71"
/>
<path stroke="#50835b" vector-effect="non-scaling-stroke" d="
  M 279.78 351.71
  C 281.15 349.17 282.32 346.95 284.03 344.59
  Q 291.42 334.44 298.29 323.88
  Q 298.55 323.47 298.55 322.98
  L 298.56 308.54
  Q 298.56 308.03 298.04 308.03
  L 269.19 308.06
  Q 268.69 308.06 268.69 308.56
  L 268.68 318.21
  A 0.56 0.56 0.0 0 0 269.25 318.77
  Q 278.35 318.70 287.50 318.88
  Q 288.20 318.90 288.31 318.93
  Q 289.43 319.23 288.70 320.14
  C 283.78 326.26 280.07 333.25 275.89 339.54
  Q 275.83 339.61 271.89 344.76
  Q 269.62 347.74 268.36 351.26"
/>
<path stroke="#ccf0bb" vector-effect="non-scaling-stroke" d="
  M 279.78 351.71
  L 268.36 351.26"
/>
<path stroke="#83939f" vector-effect="non-scaling-stroke" d="
  M 317.74 319.42
  A 0.41 0.41 0.0 0 1 318.15 319.01
  L 332.32 319.02
  A 0.41 0.41 0.0 0 0 332.73 318.61
  L 332.76 308.41
  A 0.41 0.41 0.0 0 0 332.35 308.00
  L 307.42 308.01
  A 0.41 0.41 0.0 0 0 307.01 308.42
  L 306.99 363.09
  A 0.41 0.41 0.0 0 0 307.40 363.50
  L 332.10 363.50
  A 0.41 0.41 0.0 0 0 332.51 363.09
  L 332.53 352.14
  A 0.41 0.41 0.0 0 0 332.12 351.73
  L 318.10 351.72
  A 0.41 0.41 0.0 0 1 317.69 351.32
  L 317.54 339.32
  A 0.41 0.41 0.0 0 1 317.95 338.90
  L 329.58 338.98
  A 0.41 0.41 0.0 0 0 329.99 338.57
  L 329.96 328.70
  A 0.41 0.41 0.0 0 0 329.55 328.29
  L 318.18 328.31
  A 0.41 0.41 0.0 0 1 317.77 327.90
  L 317.74 319.42"
/>
<path stroke="#83939f" vector-effect="non-scaling-stroke" d="
  M 363.74 339.39
  C 372.22 334.55 374.51 325.13 369.41 316.88
  C 363.11 306.69 352.60 308.00 342.01 307.99
  Q 341.50 307.99 341.50 308.50
  L 341.47 363.23
  A 0.26 0.26 0.0 0 0 341.73 363.49
  L 350.79 363.50
  Q 351.13 363.50 351.13 363.16
  Q 351.23 353.32 351.34 343.00
  Q 351.36 341.61 352.99 342.69
  A 0.85 0.84 3.4 0 1 353.27 343.00
  L 363.75 363.15
  A 0.50 0.48 75.6 0 0 364.18 363.42
  L 374.42 363.45
  A 0.16 0.15 77.7 0 0 374.56 363.23
  C 370.87 355.68 366.42 348.04 363.48 340.12
  Q 363.30 339.64 363.74 339.39"
/>
<path stroke="#83939f" vector-effect="non-scaling-stroke" d="
  M 241.5000 351.9700
  A 16.76 12.20 90.0 0 0 253.7000 335.2100
  A 16.76 12.20 90.0 0 0 241.5000 318.4500
  A 16.76 12.20 90.0 0 0 229.3000 335.2100
  A 16.76 12.20 90.0 0 0 241.5000 351.9700"
/>
<path stroke="#83939f" vector-effect="non-scaling-stroke" d="
  M 399.6953 352.0379
  A 16.85 12.01 90.9 0 0 411.9685 335.3786
  A 16.85 12.01 90.9 0 0 400.2247 318.3421
  A 16.85 12.01 90.9 0 0 387.9515 335.0014
  A 16.85 12.01 90.9 0 0 399.6953 352.0379"
/>
<path stroke="#83939f" vector-effect="non-scaling-stroke" d="
  M 351.12 319.88
  L 351.16 330.88
  A 0.64 0.64 0.0 0 0 351.80 331.52
  L 354.96 331.51
  A 6.80 5.97 -0.2 0 0 361.74 325.51
  L 361.74 325.17
  A 6.80 5.97 -0.2 0 0 354.92 319.23
  L 351.76 319.24
  A 0.64 0.64 0.0 0 0 351.12 319.88"
/>
</g>
<path fill="#ffffff" d="
  M 268.59 118.52
  L 268.34 132.72
  L 254.37 123.23
  Q 253.51 122.65 252.65 123.21
  Q 247.13 126.75 241.79 130.50
  Q 237.16 133.75 230.95 137.67
  C 221.62 143.58 213.05 150.73 203.48 156.25
  C 199.30 158.66 194.86 162.22 191.64 164.36
  C 186.40 167.85 181.27 171.16 176.30 175.03
  C 174.13 176.72 171.40 177.89 169.43 179.19
  C 166.28 181.29 161.61 185.22 158.23 185.49
  C 153.94 185.84 150.72 180.51 153.36 176.60
  Q 154.67 174.67 158.42 172.13
  C 165.02 167.67 171.70 163.34 178.19 158.71
  C 180.38 157.16 183.15 155.72 185.03 154.51
  C 194.98 148.11 204.27 141.00 214.40 134.83
  C 217.27 133.09 220.09 130.70 222.58 129.06
  Q 231.04 123.49 239.28 117.60
  Q 241.62 115.92 244.77 114.03
  C 248.08 112.05 250.73 109.22 255.14 110.11
  C 257.34 110.55 260.82 113.61 262.79 114.80
  Q 265.82 116.65 268.59 118.52
  Z"
/>
<path fill="#99e077" d="
  M 268.59 118.52
  L 275.47 123.07
  A 1.77 1.73 16.6 0 1 276.25 124.48
  L 276.51 135.88
  Q 276.54 137.26 275.33 136.59
  L 268.34 132.72
  L 268.59 118.52
  Z"
/>
<path fill="#ffffff" d="
  M 303.74 120.16
  C 306.58 120.21 307.65 122.85 307.62 125.25
  Q 307.45 141.43 307.76 157.38
  A 0.80 0.79 -73.8 0 1 306.53 158.06
  L 286.60 145.02
  Q 285.02 143.99 285.02 142.11
  L 285.02 124.31
  A 4.34 4.34 0.0 0 1 289.38 119.97
  Q 296.21 120.01 303.74 120.16
  Z"
/>
<path fill="#ffffff" d="
  M 341.73 205.55
  Q 337.21 202.08 332.19 198.96
  C 320.32 191.58 309.21 183.55 296.44 175.31
  Q 288.14 169.96 277.45 162.40
  C 270.83 157.72 261.85 152.89 254.64 146.92
  A 1.81 1.81 0.0 0 0 252.48 146.81
  Q 238.78 155.90 224.65 165.25
  C 220.14 168.23 214.64 172.41 209.45 175.71
  C 196.46 183.96 183.99 192.94 171.16 201.41
  Q 167.43 203.87 164.43 206.39
  C 159.72 209.60 153.44 209.39 152.67 203.01
  C 152.35 200.30 153.71 198.58 155.99 197.02
  C 163.74 191.75 171.55 186.71 179.15 181.23
  C 182.36 178.92 186.18 177.07 189.11 175.01
  Q 201.01 166.68 212.98 158.45
  C 214.45 157.44 217.02 156.15 219.25 154.51
  C 224.40 150.70 233.42 144.89 240.79 139.68
  Q 246.19 135.86 252.25 133.09
  C 254.33 132.15 258.29 134.88 260.03 135.98
  Q 272.02 143.62 283.50 152.01
  C 288.98 156.02 294.57 158.43 300.56 162.90
  Q 304.79 166.06 307.88 168.09
  Q 329.29 182.20 350.51 196.60
  C 354.22 199.12 355.98 201.86 353.15 205.91
  C 350.48 209.75 344.59 208.60 341.73 205.55
  Z"
/>
<path fill="#07263e" d="
  M 341.73 205.55
  Q 342.38 207.90 342.39 209.62
  Q 342.70 246.57 342.47 283.12
  A 1.35 1.35 0.0 0 0 343.82 284.48
  Q 380.88 284.41 417.25 284.28
  C 426.83 284.24 427.69 295.93 419.30 296.01
  Q 413.10 296.07 406.91 296.00
  C 402.06 295.95 398.96 297.31 399.88 302.77
  Q 400.43 306.00 401.91 306.97
  C 370.72 304.79 368.85 363.70 400.81 363.56
  Q 399.66 363.85 399.22 364.32
  A 0.51 0.50 41.6 0 0 399.27 365.06
  C 404.35 369.18 404.87 378.35 396.50 378.55
  Q 368.62 379.21 340.75 379.03
  Q 292.38 378.73 244.01 378.93
  C 204.64 379.10 165.28 378.77 125.92 378.97
  C 118.75 379.01 111.48 378.70 104.25 378.51
  C 99.16 378.38 98.14 372.24 100.95 368.71
  C 104.84 363.82 109.19 367.63 113.03 365.04
  Q 113.62 364.64 112.91 364.58
  L 104.97 363.91
  L 113.68 363.69
  A 0.71 0.71 0.0 0 0 114.37 362.98
  L 114.35 329.34
  Q 114.35 328.89 114.59 329.27
  L 128.10 350.99
  A 0.43 0.42 -46.0 0 0 128.83 350.97
  L 141.95 328.43
  A 0.18 0.18 0.0 0 1 142.29 328.52
  L 142.25 363.17
  A 0.31 0.31 0.0 0 0 142.56 363.48
  L 152.25 363.50
  Q 153.01 363.51 153.01 362.75
  L 152.90 308.45
  A 0.46 0.46 0.0 0 0 152.44 307.99
  L 142.98 307.96
  A 0.86 0.86 0.0 0 0 142.24 308.38
  L 128.79 330.86
  Q 128.42 331.47 128.04 330.87
  L 113.52 307.96
  Q 111.53 303.93 111.75 298.49
  Q 111.84 296.44 109.50 296.36
  Q 97.62 295.96 85.75 296.03
  Q 84.06 296.04 82.46 294.57
  C 79.50 291.84 79.93 287.80 83.10 285.33
  C 86.32 282.83 99.80 284.48 103.50 284.46
  Q 133.25 284.29 163.09 284.64
  Q 164.03 284.65 164.03 283.72
  Q 163.98 250.03 164.00 216.55
  C 164.00 213.31 164.35 209.83 164.43 206.39
  Q 167.43 203.87 171.16 201.41
  C 183.99 192.94 196.46 183.96 209.45 175.71
  C 214.64 172.41 220.14 168.23 224.65 165.25
  Q 238.78 155.90 252.48 146.81
  A 1.81 1.81 0.0 0 1 254.64 146.92
  C 261.85 152.89 270.83 157.72 277.45 162.40
  Q 288.14 169.96 296.44 175.31
  C 309.21 183.55 320.32 191.58 332.19 198.96
  Q 337.21 202.08 341.73 205.55
  Z
  M 260.8926 172.6881
  A 7.77 7.41 -8.6 0 0 252.1019 166.5233
  A 7.77 7.41 -8.6 0 0 245.5274 175.0119
  A 7.77 7.41 -8.6 0 0 254.3181 181.1767
  A 7.77 7.41 -8.6 0 0 260.8926 172.6881
  Z
  M 248.7114 192.6209
  A 0.38 0.38 0.0 0 0 248.3301 192.2423
  L 232.4102 192.2978
  A 0.38 0.38 0.0 0 0 232.0315 192.6792
  L 232.0886 209.0391
  A 0.38 0.38 0.0 0 0 232.4699 209.4177
  L 248.3898 209.3622
  A 0.38 0.38 0.0 0 0 248.7685 208.9808
  L 248.7114 192.6209
  Z
  M 274.8518 192.7202
  A 0.51 0.51 0.0 0 0 274.3400 192.2120
  L 258.2601 192.2681
  A 0.51 0.51 0.0 0 0 257.7519 192.7799
  L 257.8082 208.8998
  A 0.51 0.51 0.0 0 0 258.3200 209.4080
  L 274.3999 209.3519
  A 0.51 0.51 0.0 0 0 274.9081 208.8401
  L 274.8518 192.7202
  Z
  M 194.01 205.35
  A 6.83 6.83 0.0 0 0 187.18 198.52
  A 6.83 6.83 0.0 0 0 180.35 205.35
  A 6.83 6.83 0.0 0 0 187.18 212.18
  A 6.83 6.83 0.0 0 0 194.01 205.35
  Z
  M 314.03 267.41
  Q 314.01 267.96 313.46 267.96
  Q 288.45 268.03 263.83 267.98
  C 257.41 267.96 255.54 275.45 260.02 278.75
  Q 261.72 280.01 264.81 280.01
  Q 291.78 280.01 318.77 280.05
  C 323.84 280.06 325.50 276.75 325.50 272.00
  Q 325.55 238.00 325.58 204.00
  C 325.58 201.09 322.44 198.51 319.47 198.73
  C 314.95 199.07 314.15 202.73 314.11 206.80
  C 313.92 226.99 314.61 247.28 314.03 267.41
  Z
  M 248.8057 218.4854
  A 0.38 0.38 0.0 0 0 248.4250 218.1061
  L 232.4251 218.1340
  A 0.38 0.38 0.0 0 0 232.0457 218.5146
  L 232.0743 234.8946
  A 0.38 0.38 0.0 0 0 232.4550 235.2739
  L 248.4549 235.2460
  A 0.38 0.38 0.0 0 0 248.8343 234.8654
  L 248.8057 218.4854
  Z
  M 274.9456 218.3950
  A 0.40 0.40 0.0 0 0 274.5449 217.9957
  L 258.1449 218.0243
  A 0.40 0.40 0.0 0 0 257.7456 218.4250
  L 257.7744 234.9250
  A 0.40 0.40 0.0 0 0 258.1751 235.3243
  L 274.5751 235.2957
  A 0.40 0.40 0.0 0 0 274.9744 234.8950
  L 274.9456 218.3950
  Z
  M 181.11 267.58
  C 181.06 274.73 181.28 280.19 190.05 280.21
  Q 216.90 280.28 243.75 280.21
  C 249.97 280.19 252.38 271.40 246.50 268.44
  Q 244.98 267.67 241.87 267.67
  Q 217.39 267.70 192.69 267.71
  Q 192.45 246.40 192.58 225.24
  C 192.63 217.19 181.16 216.88 181.03 224.50
  Q 180.89 233.64 181.11 267.58
  Z
  M 262.82 324.99
  C 258.07 305.26 233.61 300.03 222.84 318.29
  C 215.19 331.24 217.67 354.37 232.49 361.53
  C 241.78 366.01 254.61 362.43 259.58 353.29
  Q 266.54 340.48 262.82 324.99
  Z
  M 173.67 328.97
  L 186.61 350.98
  A 0.62 0.62 0.0 0 0 187.68 350.98
  L 200.45 328.90
  A 0.24 0.24 0.0 0 1 200.89 329.02
  L 200.72 362.99
  Q 200.72 363.50 201.23 363.50
  L 210.98 363.50
  A 0.49 0.48 -0.0 0 0 211.47 363.02
  L 211.36 308.60
  Q 211.35 307.98 210.73 307.98
  L 201.70 307.99
  Q 201.28 307.99 201.07 308.35
  L 187.57 330.93
  A 0.42 0.42 0.0 0 1 186.85 330.94
  L 172.98 308.47
  Q 172.69 308.01 172.14 308.00
  L 163.48 308.00
  Q 162.95 308.00 162.95 308.52
  L 162.76 363.02
  A 0.51 0.50 0.0 0 0 163.27 363.52
  L 173.00 363.51
  Q 173.51 363.51 173.51 363.00
  L 173.49 329.02
  Q 173.49 328.67 173.67 328.97
  Z
  M 268.36 351.26
  L 268.53 362.82
  Q 268.54 363.49 269.22 363.49
  L 298.25 363.50
  Q 298.75 363.50 298.76 363.00
  L 298.77 352.50
  Q 298.77 351.91 298.19 351.90
  L 279.78 351.71
  C 281.15 349.17 282.32 346.95 284.03 344.59
  Q 291.42 334.44 298.29 323.88
  Q 298.55 323.47 298.55 322.98
  L 298.56 308.54
  Q 298.56 308.03 298.04 308.03
  L 269.19 308.06
  Q 268.69 308.06 268.69 308.56
  L 268.68 318.21
  A 0.56 0.56 0.0 0 0 269.25 318.77
  Q 278.35 318.70 287.50 318.88
  Q 288.20 318.90 288.31 318.93
  Q 289.43 319.23 288.70 320.14
  C 283.78 326.26 280.07 333.25 275.89 339.54
  Q 275.83 339.61 271.89 344.76
  Q 269.62 347.74 268.36 351.26
  Z
  M 317.74 319.42
  A 0.41 0.41 0.0 0 1 318.15 319.01
  L 332.32 319.02
  A 0.41 0.41 0.0 0 0 332.73 318.61
  L 332.76 308.41
  A 0.41 0.41 0.0 0 0 332.35 308.00
  L 307.42 308.01
  A 0.41 0.41 0.0 0 0 307.01 308.42
  L 306.99 363.09
  A 0.41 0.41 0.0 0 0 307.40 363.50
  L 332.10 363.50
  A 0.41 0.41 0.0 0 0 332.51 363.09
  L 332.53 352.14
  A 0.41 0.41 0.0 0 0 332.12 351.73
  L 318.10 351.72
  A 0.41 0.41 0.0 0 1 317.69 351.32
  L 317.54 339.32
  A 0.41 0.41 0.0 0 1 317.95 338.90
  L 329.58 338.98
  A 0.41 0.41 0.0 0 0 329.99 338.57
  L 329.96 328.70
  A 0.41 0.41 0.0 0 0 329.55 328.29
  L 318.18 328.31
  A 0.41 0.41 0.0 0 1 317.77 327.90
  L 317.74 319.42
  Z
  M 363.74 339.39
  C 372.22 334.55 374.51 325.13 369.41 316.88
  C 363.11 306.69 352.60 308.00 342.01 307.99
  Q 341.50 307.99 341.50 308.50
  L 341.47 363.23
  A 0.26 0.26 0.0 0 0 341.73 363.49
  L 350.79 363.50
  Q 351.13 363.50 351.13 363.16
  Q 351.23 353.32 351.34 343.00
  Q 351.36 341.61 352.99 342.69
  A 0.85 0.84 3.4 0 1 353.27 343.00
  L 363.75 363.15
  A 0.50 0.48 75.6 0 0 364.18 363.42
  L 374.42 363.45
  A 0.16 0.15 77.7 0 0 374.56 363.23
  C 370.87 355.68 366.42 348.04 363.48 340.12
  Q 363.30 339.64 363.74 339.39
  Z"
/>
<path fill="#99e077" d="
  M 323.64 156.01
  Q 325.17 156.72 326.57 157.67
  Q 335.73 163.85 352.24 175.47
  C 357.89 179.45 353.58 186.68 347.67 185.38
  C 344.59 184.70 340.88 180.26 337.04 178.10
  C 330.30 174.32 323.20 169.65 318.05 165.22
  C 313.58 161.38 317.86 153.30 323.64 156.01
  Z"
/>
<ellipse fill="#99e077" cx="0.00" cy="0.00" transform="translate(253.21,173.85) rotate(-8.6)" rx="7.77" ry="7.41"/>
<rect fill="#ffffff" x="-8.34" y="-8.56" transform="translate(240.40,200.83) rotate(-0.2)" width="16.68" height="17.12" rx="0.38"/>
<rect fill="#ffffff" x="-8.55" y="-8.57" transform="translate(266.33,200.81) rotate(-0.2)" width="17.10" height="17.14" rx="0.51"/>
<circle fill="#5ed2f8" cx="187.18" cy="205.35" r="6.83"/>
<path fill="#99e077" d="
  M 314.03 267.41
  C 314.61 247.28 313.92 226.99 314.11 206.80
  C 314.15 202.73 314.95 199.07 319.47 198.73
  C 322.44 198.51 325.58 201.09 325.58 204.00
  Q 325.55 238.00 325.50 272.00
  C 325.50 276.75 323.84 280.06 318.77 280.05
  Q 291.78 280.01 264.81 280.01
  Q 261.72 280.01 260.02 278.75
  C 255.54 275.45 257.41 267.96 263.83 267.98
  Q 288.45 268.03 313.46 267.96
  Q 314.01 267.96 314.03 267.41
  Z"
/>
<rect fill="#ffffff" x="-8.38" y="-8.57" transform="translate(240.44,226.69) rotate(-0.1)" width="16.76" height="17.14" rx="0.38"/>
<rect fill="#ffffff" x="-8.60" y="-8.65" transform="translate(266.36,226.66) rotate(-0.1)" width="17.20" height="17.30" rx="0.40"/>
<path fill="#5ed2f8" d="
  M 192.69 267.71
  L 181.11 267.58
  Q 180.89 233.64 181.03 224.50
  C 181.16 216.88 192.63 217.19 192.58 225.24
  Q 192.45 246.40 192.69 267.71
  Z"
/>
<path fill="#ffffff" d="
  M 192.69 267.71
  Q 217.39 267.70 241.87 267.67
  Q 244.98 267.67 246.50 268.44
  C 252.38 271.40 249.97 280.19 243.75 280.21
  Q 216.90 280.28 190.05 280.21
  C 181.28 280.19 181.06 274.73 181.11 267.58
  L 192.69 267.71
  Z"
/>
<path fill="#ffffff" d="
  M 222.84 318.29
  C 233.61 300.03 258.07 305.26 262.82 324.99
  Q 266.54 340.48 259.58 353.29
  C 254.61 362.43 241.78 366.01 232.49 361.53
  C 217.67 354.37 215.19 331.24 222.84 318.29
  Z
  M 241.5000 351.9700
  A 16.76 12.20 90.0 0 0 253.7000 335.2100
  A 16.76 12.20 90.0 0 0 241.5000 318.4500
  A 16.76 12.20 90.0 0 0 229.3000 335.2100
  A 16.76 12.20 90.0 0 0 241.5000 351.9700
  Z"
/>
<path fill="#ffffff" d="
  M 401.91 306.97
  C 430.46 311.95 429.21 360.62 400.81 363.56
  C 368.85 363.70 370.72 304.79 401.91 306.97
  Z
  M 399.6953 352.0379
  A 16.85 12.01 90.9 0 0 411.9685 335.3786
  A 16.85 12.01 90.9 0 0 400.2247 318.3421
  A 16.85 12.01 90.9 0 0 387.9515 335.0014
  A 16.85 12.01 90.9 0 0 399.6953 352.0379
  Z"
/>
<path fill="#ffffff" d="
  M 113.52 307.96
  L 128.04 330.87
  Q 128.42 331.47 128.79 330.86
  L 142.24 308.38
  A 0.86 0.86 0.0 0 1 142.98 307.96
  L 152.44 307.99
  A 0.46 0.46 0.0 0 1 152.90 308.45
  L 153.01 362.75
  Q 153.01 363.51 152.25 363.50
  L 142.56 363.48
  A 0.31 0.31 0.0 0 1 142.25 363.17
  L 142.29 328.52
  A 0.18 0.18 0.0 0 0 141.95 328.43
  L 128.83 350.97
  A 0.43 0.42 -46.0 0 1 128.10 350.99
  L 114.59 329.27
  Q 114.35 328.89 114.35 329.34
  L 114.37 362.98
  A 0.71 0.71 0.0 0 1 113.68 363.69
  L 104.97 363.91
  Q 103.89 363.96 103.90 362.75
  Q 104.13 336.05 103.87 308.89
  A 0.82 0.81 89.3 0 1 104.67 308.06
  L 113.52 307.96
  Z"
/>
<rect fill="#ffffff" x="83.00" y="308.05" width="9.88" height="55.54" rx="0.65"/>
<path fill="#ffffff" d="
  M 173.49 329.02
  L 173.51 363.00
  Q 173.51 363.51 173.00 363.51
  L 163.27 363.52
  A 0.51 0.50 -0.0 0 1 162.76 363.02
  L 162.95 308.52
  Q 162.95 308.00 163.48 308.00
  L 172.14 308.00
  Q 172.69 308.01 172.98 308.47
  L 186.85 330.94
  A 0.42 0.42 0.0 0 0 187.57 330.93
  L 201.07 308.35
  Q 201.28 307.99 201.70 307.99
  L 210.73 307.98
  Q 211.35 307.98 211.36 308.60
  L 211.47 363.02
  A 0.49 0.48 -0.0 0 1 210.98 363.50
  L 201.23 363.50
  Q 200.72 363.50 200.72 362.99
  L 200.89 329.02
  A 0.24 0.24 0.0 0 0 200.45 328.90
  L 187.68 350.98
  A 0.62 0.62 0.0 0 1 186.61 350.98
  L 173.67 328.97
  Q 173.49 328.67 173.49 329.02
  Z"
/>
<path fill="#99e077" d="
  M 279.78 351.71
  L 268.36 351.26
  Q 269.62 347.74 271.89 344.76
  Q 275.83 339.61 275.89 339.54
  C 280.07 333.25 283.78 326.26 288.70 320.14
  Q 289.43 319.23 288.31 318.93
  Q 288.20 318.90 287.50 318.88
  Q 278.35 318.70 269.25 318.77
  A 0.56 0.56 0.0 0 1 268.68 318.21
  L 268.69 308.56
  Q 268.69 308.06 269.19 308.06
  L 298.04 308.03
  Q 298.56 308.03 298.56 308.54
  L 298.55 322.98
  Q 298.55 323.47 298.29 323.88
  Q 291.42 334.44 284.03 344.59
  C 282.32 346.95 281.15 349.17 279.78 351.71
  Z"
/>
<path fill="#ffffff" d="
  M 317.74 319.42
  L 317.77 327.90
  A 0.41 0.41 0.0 0 0 318.18 328.31
  L 329.55 328.29
  A 0.41 0.41 0.0 0 1 329.96 328.70
  L 329.99 338.57
  A 0.41 0.41 0.0 0 1 329.58 338.98
  L 317.95 338.90
  A 0.41 0.41 0.0 0 0 317.54 339.32
  L 317.69 351.32
  A 0.41 0.41 0.0 0 0 318.10 351.72
  L 332.12 351.73
  A 0.41 0.41 0.0 0 1 332.53 352.14
  L 332.51 363.09
  A 0.41 0.41 0.0 0 1 332.10 363.50
  L 307.40 363.50
  A 0.41 0.41 0.0 0 1 306.99 363.09
  L 307.01 308.42
  A 0.41 0.41 0.0 0 1 307.42 308.01
  L 332.35 308.00
  A 0.41 0.41 0.0 0 1 332.76 308.41
  L 332.73 318.61
  A 0.41 0.41 0.0 0 1 332.32 319.02
  L 318.15 319.01
  A 0.41 0.41 0.0 0 0 317.74 319.42
  Z"
/>
<path fill="#ffffff" d="
  M 363.48 340.12
  C 366.42 348.04 370.87 355.68 374.56 363.23
  A 0.16 0.15 77.7 0 1 374.42 363.45
  L 364.18 363.42
  A 0.50 0.48 75.6 0 1 363.75 363.15
  L 353.27 343.00
  A 0.85 0.84 3.4 0 0 352.99 342.69
  Q 351.36 341.61 351.34 343.00
  Q 351.23 353.32 351.13 363.16
  Q 351.13 363.50 350.79 363.50
  L 341.73 363.49
  A 0.26 0.26 0.0 0 1 341.47 363.23
  L 341.50 308.50
  Q 341.50 307.99 342.01 307.99
  C 352.60 308.00 363.11 306.69 369.41 316.88
  C 374.51 325.13 372.22 334.55 363.74 339.39
  Q 363.30 339.64 363.48 340.12
  Z
  M 351.12 319.88
  L 351.16 330.88
  A 0.64 0.64 0.0 0 0 351.80 331.52
  L 354.96 331.51
  A 6.80 5.97 -0.2 0 0 361.74 325.51
  L 361.74 325.17
  A 6.80 5.97 -0.2 0 0 354.92 319.23
  L 351.76 319.24
  A 0.64 0.64 0.0 0 0 351.12 319.88
  Z"
/>
<ellipse fill="#07263e" cx="0.00" cy="0.00" transform="translate(241.50,335.21) rotate(90.0)" rx="16.76" ry="12.20"/>
<ellipse fill="#07263e" cx="0.00" cy="0.00" transform="translate(399.96,335.19) rotate(90.9)" rx="16.85" ry="12.01"/>
<path fill="#07263e" d="
  M 351.12 319.88
  A 0.64 0.64 0.0 0 1 351.76 319.24
  L 354.92 319.23
  A 6.80 5.97 -0.2 0 1 361.74 325.17
  L 361.74 325.51
  A 6.80 5.97 -0.2 0 1 354.96 331.51
  L 351.80 331.52
  A 0.64 0.64 0.0 0 1 351.16 330.88
  L 351.12 319.88
  Z"
/>
<path fill="#ffffff" d="
  M 268.36 351.26
  L 279.78 351.71
  L 298.19 351.90
  Q 298.77 351.91 298.77 352.50
  L 298.76 363.00
  Q 298.75 363.50 298.25 363.50
  L 269.22 363.49
  Q 268.54 363.49 268.53 362.82
  L 268.36 351.26
  Z"
/>
</svg>
